<svg xmlns="http://www.w3.org/2000/svg" viewBox="0 0 48 32" fill="none">
  <rect width="48" height="32" rx="4" fill="#F5F5F5"/>
  <path d="M19.5 8H25C27.5 8 29 9.5 29 11.5C29 14 27 16 24 16H22L21 22H17L19.5 8Z" fill="#003087"/>
  <path d="M22 12H24C25 12 25.5 12.5 25.5 13.25C25.5 14.25 24.75 15 23.75 15H22.5L22 12Z" fill="#F5F5F5"/>
  <path d="M22 10H27.5C30 10 31.5 11.5 31.5 13.5C31.5 16 29.5 18 26.5 18H24.5L23.5 24H19.5L22 10Z" fill="#009CDE"/>
  <path d="M24.5 14H26.5C27.5 14 28 14.5 28 15.25C28 16.25 27.25 17 26.25 17H25L24.5 14Z" fill="#F5F5F5"/>
</svg>
