<svg xmlns="http://www.w3.org/2000/svg" viewBox="0 0 48 32" fill="none">
  <rect width="48" height="32" rx="4" fill="#1A1F71"/>
  <path d="M19.5 21H17L18.75 11H21.25L19.5 21Z" fill="white"/>
  <path d="M28.5 11.25C27.9 11 27 10.75 26 10.75C23.5 10.75 21.75 12 21.75 13.75C21.75 15.1 23 15.85 24 16.35C25 16.85 25.35 17.2 25.35 17.65C25.35 18.35 24.5 18.7 23.75 18.7C22.65 18.7 22.1 18.55 21.2 18.15L20.8 17.95L20.4 20.4C21.1 20.7 22.4 21 23.75 21C26.4 21 28.1 19.75 28.1 17.85C28.1 16.75 27.4 15.9 25.9 15.2C25 14.75 24.45 14.45 24.45 13.95C24.45 13.5 25 13.05 26.05 13.05C26.95 13.05 27.6 13.25 28.1 13.45L28.35 13.55L28.75 11.25H28.5Z" fill="white"/>
  <path d="M32.5 11H30.5C29.85 11 29.35 11.2 29.1 11.85L25.25 21H27.9L28.4 19.5H31.55L31.85 21H34.25L32.5 11ZM29.15 17.5L30.15 14.5L30.75 17.5H29.15Z" fill="white"/>
  <path d="M16.5 11L14 18L13.7 16.6C13.15 14.9 11.6 13 9.85 12.1L12.1 21H14.8L19.3 11H16.5Z" fill="white"/>
  <path d="M12.25 11H8.1L8 11.2C11.1 12 13.15 13.9 14 16.1L13.1 11.9C12.95 11.25 12.45 11.05 12.25 11Z" fill="#F7B600"/>
</svg>
